<?xml version="1.0" standalone="no"?>
<!DOCTYPE svg PUBLIC "-//W3C//DTD SVG 20010904//EN"
 "http://www.w3.org/TR/2001/REC-SVG-20010904/DTD/svg10.dtd">
<svg version="1.0" xmlns="http://www.w3.org/2000/svg"
 width="772.000000pt" height="772.000000pt" viewBox="0 0 772.000000 772.000000"
 preserveAspectRatio="xMidYMid meet">
<metadata>
Created by potrace 1.14, written by Peter Selinger 2001-2017
</metadata>
<g transform="translate(0.000000,772.000000) scale(0.100000,-0.100000)"
fill="#000000" stroke="none">
<path d="M3685 7474 c-246 -36 -405 -77 -563 -147 -430 -190 -790 -561 -969
-1001 -324 -800 -35 -1736 686 -2217 244 -162 517 -263 815 -300 150 -18 421
-7 572 25 290 61 567 190 790 370 362 291 602 715 670 1186 23 159 16 441 -16
595 -149 745 -704 1304 -1450 1460 -103 22 -158 27 -315 30 -104 2 -203 1
-220 -1z m-413 -451 c139 -192 238 -312 311 -378 131 -119 295 -246 359 -280
l68 -36 42 30 c55 38 164 150 215 221 52 72 132 210 227 393 43 81 80 147 83
147 3 0 4 -48 1 -107 -7 -136 -35 -222 -151 -469 -46 -98 -95 -210 -107 -248
-27 -84 -24 -133 22 -375 l32 -164 -23 -116 c-13 -64 -29 -141 -36 -171 -7
-30 -16 -68 -20 -85 -6 -28 -8 -26 -34 45 -46 125 -121 252 -181 305 -12 11
-56 62 -98 113 -41 52 -152 173 -246 270 -94 97 -191 202 -216 232 -24 30 -70
84 -101 120 -169 195 -259 408 -274 646 -6 85 -5 88 11 67 9 -13 61 -85 116
-160z m778 -132 l50 -49 0 -130 0 -130 -52 -22 c-90 -39 -119 -38 -166 4 -85
77 -104 199 -50 319 l27 57 70 0 71 0 50 -49z m-22 -1201 c100 -156 148 -245
171 -318 l22 -68 -39 -159 c-104 -420 -162 -770 -162 -982 0 -126 -8 -117 -66
77 -56 189 -65 302 -34 443 24 110 40 146 133 299 99 164 106 190 33 118 -71
-68 -133 -158 -226 -325 -40 -71 -91 -161 -114 -200 -47 -78 -71 -128 -156
-320 -97 -221 -92 -221 -86 5 8 328 38 435 318 1130 66 163 128 351 128 388 0
27 18 7 78 -88z"/>
<path d="M1620 3945 c-1011 -123 -1737 -1054 -1605 -2059 103 -786 680 -1407
1460 -1572 148 -31 428 -43 582 -25 1108 133 1843 1212 1563 2296 -228 884
-1091 1471 -2000 1360z m-440 -972 c0 -5 19 -75 41 -158 41 -149 41 -151 46
-368 l5 -217 551 2 551 3 19 70 c12 45 22 130 27 240 7 142 14 187 39 275 16
58 34 117 40 133 l11 27 173 0 174 0 21 -92 c36 -154 51 -269 62 -491 15 -291
0 -763 -29 -895 -23 -107 -64 -203 -109 -250 l-31 -33 -113 3 -113 3 -32 65
c-44 91 -70 199 -93 385 -11 88 -25 202 -31 253 l-12 92 -552 0 -553 0 -5
-192 c-3 -106 -10 -222 -17 -258 -6 -36 -18 -99 -26 -140 -7 -41 -28 -104 -46
-140 l-33 -65 -50 -3 c-59 -4 -183 14 -230 34 -35 14 -48 44 -88 194 -27 101
-28 123 -33 560 -6 536 6 700 66 899 l21 71 174 0 c96 0 175 -3 175 -7z m-515
-315 c3 -29 5 -291 3 -583 l-3 -530 -59 0 -59 0 -23 45 c-53 105 -59 157 -58
535 1 283 5 364 18 423 9 40 20 81 26 91 8 15 116 69 142 71 4 0 9 -24 13 -52z
m2441 26 c76 -31 76 -31 98 -171 12 -76 16 -174 16 -401 0 -321 -6 -377 -53
-503 l-24 -64 -59 0 -59 0 -3 583 c-1 382 1 582 8 582 5 0 39 -12 76 -26z
m-2756 -579 c0 -323 -2 -332 -54 -256 -55 79 -69 134 -70 276 -1 148 15 207
65 250 60 50 59 54 59 -270z m3070 247 c39 -148 44 -304 11 -400 -24 -69 -65
-142 -81 -142 -6 0 -10 59 -10 153 0 150 -19 337 -39 388 -5 15 -7 30 -4 33 4
3 30 6 59 6 53 0 53 0 64 -38z"/>
<path d="M5634 3905 c-614 -88 -1130 -462 -1405 -1018 -403 -816 -136 -1819
621 -2329 623 -420 1431 -423 2051 -9 495 332 795 868 816 1461 13 369 -71
704 -253 1007 -275 457 -701 759 -1224 868 -159 33 -447 43 -606 20z m-64
-1070 c77 -28 173 -87 249 -152 l43 -38 -7 -58 -7 -58 -32 7 c-43 9 -101 39
-174 91 -77 54 -109 68 -221 94 l-89 20 -106 -30 c-128 -37 -224 -84 -289
-141 l-48 -43 -60 28 c-32 16 -59 34 -59 40 0 25 129 132 220 183 122 68 230
92 390 88 95 -3 128 -9 190 -31z m1222 16 c97 -25 154 -54 256 -131 l82 -62 0
-64 c0 -35 -4 -64 -10 -64 -31 0 -116 40 -193 92 -88 59 -187 98 -289 113 -75
11 -224 -35 -353 -109 -129 -75 -170 -96 -185 -96 -6 0 -10 26 -10 64 l0 64
53 40 c196 149 439 207 649 153z m-2027 -741 c33 -17 105 -67 160 -111 55 -45
125 -98 156 -119 31 -22 68 -53 82 -70 35 -41 57 -118 57 -196 l0 -63 85 -51
c121 -73 298 -155 423 -196 106 -35 108 -35 292 -36 258 -1 348 21 508 126
128 85 183 159 326 442 53 106 104 202 115 215 18 23 21 23 87 12 38 -7 98
-27 134 -45 l65 -34 0 -75 c-1 -121 -36 -182 -200 -346 -207 -206 -400 -317
-680 -390 -94 -25 -115 -26 -345 -27 -222 -1 -253 1 -326 21 -180 48 -359 127
-499 218 -37 25 -73 45 -79 45 -6 0 -53 -12 -104 -26 l-93 -26 -82 52 c-45 29
-159 108 -254 177 -130 95 -174 132 -182 155 -14 39 -14 38 8 38 39 0 105 -32
184 -89 46 -33 99 -67 120 -76 35 -14 107 -21 107 -10 0 3 -9 22 -19 43 -24
47 -98 117 -178 171 l-63 42 0 54 c0 30 3 55 8 55 11 0 47 -26 137 -98 78 -64
163 -112 198 -112 14 0 17 9 17 55 l0 54 -62 42 c-64 43 -228 200 -228 218 0
14 53 -3 125 -39z"/>
</g>
</svg>
