<svg xmlns="http://www.w3.org/2000/svg" viewBox="0 0 545.958 270.663">
  <g>
    <path d="M267.061,185.909c-.735.874-.424,2.422-1.847,2.851-1-.9.6-2.361,1.847-2.851m-2.238,2.933a3.015,3.015,0,0,1-1.846,2.852c-.328-1.559.511-2.363,1.846-2.852m-2.628,3.022c.556.007.534.91.727,1.48-1.125.508-1.353,1.6-2.405,2.152.1-1.507,1.577-2.127,1.678-3.632M253.218,207.3c-.218,1.657-2.431,2.022-1.985,4.109-2.1-.8.674-3.368,1.985-4.109m49.683-6.958c1.021-.05,2.087.954,1.594,1.706-.831-.105-1.266-.822-1.594-1.706m-61.892,20.583c-1.131,2.332-4.417,2.332-6.4,2.8-.052-.717.49-.842.4-1.6,2.7,1,3.311-.808,6.006-1.2M194.58,239.468c-.7.63-.83,1.838-2,2-.244-1.577.895-1.772,2-2m-52.86-17.014c1.458.336.5,1.967.4,2.8-1.37-.212-.613-1.93-.4-2.8m.8,9.607h1.2c.564.767-.111,2.853-1.6,2.8.551-.515.4-1.738.4-2.8m-5.6-57.644a1.1,1.1,0,0,1,0-1.6c1.21.608-.333,1.758,0,2.8a28.125,28.125,0,0,1-3.2,1.2c-.494-1.3,1.3-.308.8-1.6-1.056-.122-1.033.835-1.2,1.6-2.009-.323,1.817-2.273-.4-2.805.563-.919,1.66.978,2.4,1.2.593-.207,1.01-.593,1.6-.8m6-4.8c.57-1.053,1.521.844,1.6,1.6-2.008.013-.164,2.416-.8,3.2-.091.575-1.2.138-1.2.8-2.237-1.718,1.3-4.8.4-5.6M391.13,179.33c-.664,1.287-1.283,1.565-1.187,2.975-1.629-.019.587-1.691-1.042-1.711.571-.82,1.083-1.783,2.229-1.264m8.27,17.087c.507.32.194,3.046-.59,3.644-1.565-.457.515-2.48.59-3.644m-3.644-.59c1.37-.113.177,2.884-.738,1.86.243-.62.493-1.239.738-1.86" />
    <path d="M290.75,172.46c2.609.286,3.893-1.4,4.26-4.753.723.5,2.916.211,2.658-1.047,1.559.409-.9,1.475-.427,2.489,2.093.981,1.939,3.033,3.933,4.916.334-.357.6-3,1.277-.754,1.512-3.838-1.814-6.351-3.537-9.8,7.985,6.322,13.127,17.448,20.682,24.85,4.061,2.48,6.839,6.943,10.356,10.262.659-.1,1.316-.2,1.278-.756.432-.315.63,2.47.133,2.852-3.631-1.823-7.263-7.552-11.374-10.52-1.55,4.908,5.418,7.451,7.441,12.324,1.071-.095,1.7-.48,1.635-1.311.234,2.058.5,6.587,4.95,5.181.651,1.474-.62,1.7-.883,2.589,1.054.927,1.893.322,2.883,2.264-1.388.718-.952-1.38-2.13-.987-.567.29-.549.964-1.182,1.213.367,1.158.657-.8,1.835-.392a8.5,8.5,0,0,1-1.7,3.245c.346.637.549-.31,1.375-.3-.089,2.127.325,1.507,1.149,3.114-1.357-.345-2.081-1.67-3.344-2.165-1.355.436-.442,2.115.492,2.294.289.979-1.584.561-2.2.952-8.51,11.865-16.415,25.406-26.031,35.336,1.652,1.264-2.95,3.405-1.77,5.18a4.482,4.482,0,0,0-4.3,2.358c-.426-1.065.623-1.178-.033-2.393-.678.351-.081,1.527-1.639,1.31-.238,1.46,2.566,1.236,1.408,2.1.678,1.49-1.527,1.121-1.443,2.229-1.506-.261-.049-1.823-.029-2.393-3.8.6.4,3.935-2.788,4.92.092-.733.43-1.306.524-2.035-1.914.082-2.527,1-4.03,1.344-.075-3.079,2.792-4.253,3.309-6.95-1.088-1.846-.921.7-2.752.59.873-3.973-2.808-5.013-4.619-8.131-.279.876-1.019,1.452-2.56,1.509-1.212-1.038-2.18-3.4-3.8-2.065-.95-5.252-5.564-4.844-6.851-9.571-5.514-4.684-8.556-13.184-14.88-17.93-.817.653-.289,2.18-1.9,2.327,1.1-1.114.62-4.337-2.064-2.922-.126-2.191,1.625-3.161,1.77-5.178-2.723,1.2-2.848,5.97-6,5.606,1.907.033.587-2.606,3.179-3.082-1.718-2.1,2.594-2.477,1.215-5.541-2.1.358-.707,2.97-2.624,3.444-.524-2.392,3.372-5.145,3.477-8.427-1.139-1.37-.916-1.306-1.7-3.473a2.428,2.428,0,0,1,3.147,1.243c9.92-15.584,22.433-29.493,34.291-43.819,1.025.449,2.624.018,2.788,1.8,2.114-2.192,1.968-5.842,5.147-7.343-.638,3.409-4,5.054-3.836,8.982-3.367.454-1.836,4.085-4.164,5.212m-2.428,4.358c1.946.768,3.03-1.829,3.639-3.179-1.961-.781-2.73,2.023-3.639,3.179m8.69-4.26c.188.913-1.127.853-.528,2.031,1.024-.352,1.752-.257,2.033.527a33.647,33.647,0,0,0,10.456,10.719c-2.5-4.7-6.848-10.7-11.961-13.277m-2.658,7.77c.019,2,2.269.565,3.15,1.242-.5-1.06-.9-2.273-2.33-1.9-.025.38-.269.618-.82.657m20.385,30.191c-5.909-9.033-14.493-16.35-19.665-24.588-.886-1.364,1.41-.667.526-2.032a1.277,1.277,0,0,1-1.211-1.181c-2.76.192-2.918,2.821-3.084,3.543,3.7,5.36,9.578,10.877,13.57,16.291.978,1.325,2.9,4.12,2.195,5.773-6.166-8.907-10.245-12.969-17.042-21.311-4.62,6.894-9.834,13.4-14.919,19.992,4.751,10.986,13.432,15.9,19.667,24.589-.526.189-1.321.2-1.278.753,5.441-.859,8.618-8.872,11.965-13.6,3.012-1.124,2.564-6.005,6-5.607.1-1.249-2.246-1.724-1.047-2.654.7-.062.655,1.016.851,1.74,2.169-.789,2.1-.565,3.472-1.707m-2.552-25.373c-1.21-1.792-2.261-3.833-3.933-4.915a11.835,11.835,0,0,0,3.933,4.915m-1.607,3.705c-.359-1.485-1.119-2.348-2.424-2.358.413,1.4,1.657,1.506,2.424,2.358m-49.368,18.255c2.979-1.733,4.769-7.382,7.31-10.686-3.038,2.91-6.814,7.445-7.31,10.686m56.55-18.353c-.649-1.042-.984-2.558-2.428-2.36.943.578,1.033,2.474,2.428,2.36m-58.256,21.6c.081-1.133,2.334-.859,1.346-2.687-1.208.172-2.978,1.985-1.346,2.687m12.885-.36c2.259-.151-.808,2.12-1.9,2.326.706,1.557,1.9,2.357,2.72,3.74-.157-.76,1.217-.531,1.179-1.213-.6.119-.857-1.147-.293-1.376,1.973-.216,3.28,4.848,5.572,3.609-1.443-2.363-4.528-5.084-4.522-7.674-1.039-.056-2.84-1.044-2.754.588m-9.378,7.77a3.834,3.834,0,0,0-1.508-2.557c-.5.763.155,2.859,1.508,2.557m2.756-.591a1.759,1.759,0,0,0,1.44-2.227,2.225,2.225,0,0,1-1.476-.164c.659,1.214-.39,1.325.036,2.391m6.553,1.475c-1.7-.223-1.839-2.858-3.538-3.083-.41.939,2.476,4.5,3.538,3.083m-12.652,3.67c.6-.53.349-1.619.426-2.488-1.968-.535-2.3,3.037-.426,2.488m2-1.863c-.976-1.183.224-2.24-1.866-2,.3,1.16.592,2.345,1.866,2m65.956-10.29c1.217-.659,1.327.392,2.393-.032-.169-1.166-1.013-1.286-1.77-1.54.032.676-.59.935-.623,1.572m-64.153,14.221c-2.2,1.559-.44-.625-1.671-1.082-.043.763-1.361.7-.525,2.034.771-.3,2.777.936,2.2-.952m18.194-2.457c-1.157-.45-1.435-2.261-2.885-2.261.652.861,2.134,3.578,2.885,2.261m-10.981,11.47c-2.525-1.4-3.262-5.548-5.8-6.916.741,2.905,3.569,6.668,5.8,6.916m14.257-7.372c-.636-1.257-1.291-2.487-2.522-2.819.114,2.063,1.369,2.357,2.522,2.819m7.313,9.476c1.151-.178,2.244-.394,2.1-1.413-1.768-.735-2.643-2.84-4.557-3.345.461,2.339,2.885,2.812,2.459,4.758m-13.212,10.026c-.476-1.711-1.142-3.124-2.984-2.722.789,1.225,1.232,2.987,2.984,2.722m5.964,5.441c-.76-2.214-5.415-4.481-5.211-4.162C281.446,249.706,283.754,250.114,285.006,250.965Zm129.245-39.06c.758.366,1.13-.169,1.916.258-2.672,4.669-1.3,10.294-2.509,17.693,4.9-5.575,3.242-13.808,5.99-21.356,1.745,2.4-1.315,8.648-1.03,12.726,2.35-3.717,3.968-6.024,5.217-10.553a1.134,1.134,0,0,1,.784,1.827c1.121-2.328,5.989-6.49,2.869-8.454.5-1.059,1.527.458,1.744.7,4.828-9.093,11.506-24.835,20.621-30.176-.628,3.322-3.826,4.122-5.483,7.413.311,1.922,2.392-1.28,2.792.607-4.572,2.289-3.557,6.314-7.053,8.81,4.14-1.454-1.965,3.852.183,4.619.229-.981,1.637-1.389,1.648-2.877a7.954,7.954,0,0,1,.617,2.262c2.406.089.916-3.831,3.046-3.835,0,1.846.794,4.1-1.215,5.579q1.925,1.119,2.439-1.05c1.674,1.4-.815,2.361-1.654,2.879-.133.535.65.684,1.136.958-2.479,2.335-3.45,4.508-5.307,6.973,2.125-.259,2.484-2.71,4.437-4.8,1.207.849,1.583-.24,2.79.6-1.163,2.073-1.4,2.475-2.7,2.97.107.556.822.85.351,1.655,1.275.448,1.5-1.556,2.874-.875-.159.431.395.552.7.785-11.351,11.211-18.015,32.688-26.707,45.434-.161,2.143-1.242,2.761-2.871,3.4-.081,1,2.149,1,1.047,2.441-2.11-1.4-.676,1.518-1.916-.259-.457,4-3.781,3.836-3.912,6.017-1.094-.85-1.379.166-2.357-.432,1.029-2.244.125-2.621,1.567-3.926a10,10,0,0,1-2.885-1.649c-.981-.331-.921,1.773-1.477,2.441-2.093-1.129-3.783-1.46-5.664.269-.285-3.492-2.252-6.258-2.1-9.938-1.089-.848-1.377.167-2.355-.433-1.015-4.016-2.689-7.752-2.1-12.459a2.639,2.639,0,0,1-1.921-.258c-.461-6.632-.655-14.187-1.243-19.7-3.16,3.244-8.777,8.6-6.519,12.557-.987-.178-1.037-.758-1.573-1.131-.341.868.97,1.031.179,2.089.866.344,1.026-.964,2.087-.172-2.309,1.685.776,2.642-.429,4.878-1.4-2.05-1.281-2.74-2.532-5.049-.682-.362-2.015,2.5-.432,2.352-.481.847-1.511.4-2.267.614-.343,2.433-2.8,5.78-.254,6.969-.854.254-1.236,1.609-2.438,1.051,1.3,2.32-3.27,4.577-1.3,7.06-.97-1.058-2.494-1.664-4.884-.428-6.4-21.813-17.972-41.4-29.786-60.888-.837,1.572,2.366,4.516,1.665,7.23a27.12,27.12,0,0,1-2.447-6.535c-1.973-.27-2.766-3.013-2.968-2.7-.85-1.225,1.917-1.075,2.35-2.094.592-.976-2.08-.551-.784-1.831-.541-.132-.685.651-.958,1.137-1.22-.8.083-2.686-1.136-3.487-1.121.622.84,2.995.178,4.621-2.812-5.276-2.512-13.064-8.3-15.942.158-.753.713-.586.958-1.134-.722-1.924-3.5-.721-2.791-3.133.966.544,1.361,1.341,2.876,1.648.163-4.659-3.16-8.036-5.065-10.1.433-2.334,2.178,2.8,4.885,2.96-.159.751-.714.586-.959,1.132a3.319,3.319,0,0,0,.961,1.393c.648-1.383,3.313-.754,1.308.521a2.565,2.565,0,0,0,2.44-1.048c2.98,2.82,2.991,3.231,7.759,4.612a14.07,14.07,0,0,0,5.586,6.269c.511-1.305-.541-1.935-.263-3.139-.763-.367-1.134.17-1.919-.261q.26-.65.522-1.305a2.629,2.629,0,0,1-1.919-.262c2.879-1.35-.854-1.869-2.618-3.57,1.872.1.539-2.047,2.09-2.7,2.887,1.8,5.038,5.905,8.2,7.308-.633,1.7,4.978,6.179,6.459,9.142,5.595,11.2,13.478,22.562,18.689,34.235,5.407-6.7,10.81-13.423,17.847-18.147,1.211,2.174-1.6,1.963-.692,4.272,5.741,1.28,4.269-4.759,7.486-8.638,1.06,1.374-1.772,5.551-.6,7.843,1.13-.447,1.469-2.746,3.224-1.744,1.058-2.625,1.046-4.787,2.518-7.587.449,3.074.768,5.423-.774,8.281.442.938,1.386,2.609,2.7,2.086-.117-.808-.7-.139-1.572-1.13.572-.9,2.451.584,2.616,1.043.742-1.074.828-3.68,2-3.748,1.024,2.81-1.97,7.347-1.036,10.2,1.276.451,1.5-1.553,2.874-.871-.712.023-.733,1.651-1.567,1.393-.449.918,1.468.815,2.007,1.305C415.078,208.244,414.85,208.109,414.251,211.905Zm25.883,2.236c1.3-1.373,5.71-3.815,4.351-5.846-1.962,2.249-3.156,3.33-4.351,5.846m-77.5-22.314c-.76-.876-.865-2.035-1.918-2.788-.481,1.193,1.018,3.382,1.918,2.788M390.62,204c.423-1.269,1.817-.263,1.916-2.27-1.057-.694-2.491,1.938-1.916,2.27m19.47,31a8.134,8.134,0,0,0-.178-4.618,5.839,5.839,0,0,0,.178,4.618m.375,21.876c.914-1.841.281-3.014-.354-4.183-.788,1.78-.16,2.957.354,4.183m-2.878.872c1.541.182,1.074,1.226,1.835,1.742-.136-1.522.02-5.052-1.664-4.7,1.072.963.923,1.9-.171,2.961m-24.011-42.415c3.727-5.494-.977-3.022,0,0m30.115-37.511c1.912.621-.733,1.921-1.043,2.616C411.537,179.376,413.717,179.132,413.691,177.827Z" />
    <path d="M228.394,239.452c3.919,1.746,12.062-1.455,15.957-1.408-1.04,4.22-8.865,1.349-11.734,4.694,2.625,1.237,6.134-1.291,10.325-1.41-2.376,2.79-8,2.33-11.734,3.756.307.478,1.079.489.939,1.411,2.824.317,3.08-1.931,6.1-1.411-.471,3.441-5.888,1.935-7.51,4.225.428,1.283,1.644-.832,2.347.472-.983,1.264-1.978,2.5-2.815,1.406-3.652,3.912-15.451,5.148-22.529,8.448-.173-.8.365-.886.938-.938-.8-1.372-1.707,1.06-3.285.468.076.548.855.395,1.409.47-.447.377-3.444,2.5-3.286,0-1.3-.2-.439,1.749-1.41,1.877-1.224.127-2.346.157-1.876-1.41-1.241.553-1.457.408-.939,1.881-2.176-.234-3.434-.172-4.693,1.4-3.441-2.74-6.764.172-10.325.472.4-1.482,2.419-1.333,2.815-2.818-1.909-.3-.418-1.809-1.877-1.874.112-1.415,1.307-.24,1.877-1.88-.292-1.27-1.96-1.166-1.877-2.816,1.195.246,1.82.8,1.877-.934a4.609,4.609,0,0,0-3.754.467c.734-2.377-.691-1.29,0-3.286,2.4.365,3.88-.188,3.286-2.816-1.1-1.375-2.827-1.405-3.754-1.88.574-.826,1.453-1.358,1.877-2.344-1.446-1.553.27-3.375-1.409-4.692,1.314-3.03.009-9.587-.468-14.079-.138-1.282,1.237-3.208-.94-3.286.15,5.9-.681,16.181,1.408,23-1.122.884-2.533,3.331-2.816,1.4-1.645.133.849,2.079-.469,1.88-2.322-.4.7-2.438.938-3.284-1.26-15.865-1.977-26.861-3.754-43.182-.423-1.579-1.049-.053-1.878-.935.158-1.095.482-2.024,1.41-2.348-3.066-4.081.365-7.485-1.41-10.8,1-.222.9.67.938,1.408,2.431-1.2,1.4-4.928,1.877-7.041,4.834.886-.379-7.18,3.756-7.51.489,4.252,1.574,11.154,3.756,16.426,2.545-1.637.462-6.054,0-9.384,1.039-.259.668.9,1.406.939.743-1.689.248-3.569.471-6.573.869.073.288,1.592.937,1.877.153-1.127-.317-5.594.94-7.037-.2-1.8-2.73.6-2.816-1.878,2-.166,1.7.48,4.224-.468,5.07,23.855,6.282,48.6,7.979,71.337,5.342.4,7.7-3.1,10.8-1.408,15.054-1.749,33.573-6.764,46.934-8.919-7.31,4.686-17.455,3.7-25.346,7.509a3.3,3.3,0,0,0,1.409.94c1.34-.861,4.326-2.537,6.1-1.408-2.492,1.564-6.241,2.2-10.324,3.286m-40.366-37.546c-.285-1.122.592-3.406-.467-3.755-.906.962-.317,3.074.467,3.755m-5.16,18.3a5.779,5.779,0,0,0-.471-4.221c-.63.768-.1,3.223.471,4.221m9.855,26.752c.026-.491.6-.371.469.473,1.624.06,2.725-.408,2.347-2.349-1.13.195-1.021-.857-2.347-.468.01.7-1.744,1.919-.469,2.344m-4.7,2.349c1.478.234,1.838-1.023,2.818,0V246.5c-.987-.539-1.83.284-2.818-.941-.716,1.491-.162,2.065,0,3.755m0,6.572c.776,0,.264,1.3.939,1.4-.122-1.829,1.461-1.5,1.879-.468-.143-1.08,1.355-.522,1.407-1.406-1.434.337-1.378-.813-2.815-.471.413,2.186-1.547-.315-1.41.941m-.467,5.631c1.66.249,2.418-.4,2.816-1.41a3.054,3.054,0,0,1-2.349-.467c-.146.633-.667.894-.467,1.877M110.1,181.489c.781-1.253,1.261-.507,2.817-1.408.208.417.412.838.938.939.372,1.623-.521,1.981-.938,2.815,1.4.672,1.595-.381,2.815.469-1.948-1.183,1.318-1.938-1.407-2.346a2.945,2.945,0,0,0,.938-3.755c1.422-.646,1.676.224,3.755,0-.733.786-2.953,1.346-2.346,4.694,1.7.132,1.073-2.055,1.877-2.816,1.254,1.294,1.02-.554,2.346-.471.134,1.431-1.5,1.825-.468,2.818,8.707-4.3,19.682-8.823,31.915-9.856-5.963,2.461-13.29,3.662-19.244,5.631,13.364-.973,26.695-5.959,37.078-8.446-.013.453-.574.364-.939.467-.58,1.52,1.519.359.939,1.88-5.524,1.642-10.4,2.786-15.958,5.161,4.589-.343,9.267-.748,14.08-1.409-1.106,2-3.713,1.773-5.162,2.347,1.018,1.439,2.641-.451,4.223,0-1.213,3.512-4.162,1.051-5.632,3.755,2.69.028,3.977-1.342,7.041-.938-3.54,2.163-7.14,2.675-12.671,4.225,6.4,2.595,11-4.188,17.365-2.817-16.366,7.826-32.675,11.928-50.221,17.364-.156,1.876.605,4.672-1.408,4.693a15.584,15.584,0,0,0,.47-4.693c-4.54-.855-2.871,8.72-4.692,10.8,1.013,1.059,1.6-.39,3.284,0-.316-2.348.435-3.633.47-5.633,2.371-.234.843,3.1.468,4.224,4.71.91,13.852-3.266,19.243-3.285-1.141,3.155-8.017,2.35-11.732,4.225,1.88,3.145,7.356.862,9.856,1.406-.095,2.7-2.264,1.078-3.285,3.289,8.294-.843,17.182-4.94,27.221-7.981-.618,3.294-5.61,2.211-7.039,4.692-7.156.98-12.184,4.089-19.244,5.162.306.479,1.079.488.938,1.41-1.826,1.458-5.487,1.086-6.57,3.286.089.379.47.469.469.937,3.121-.718,7.991-2.685,11.734-3.283,1.262-.2,4.27-1.436,4.693.938-6.068,1.707-14.522,4.552-21.121,6.569.646,2.188,3.389-1.98,3.756,1.411a66.206,66.206,0,0,1,7.509-.941c-.08,3.211-4.041,1.868-6.571,2.349-2.082.393-3.9,1.889-5.632,2.344-.563.15-.273-.932-.469-.939-1.726-.047-4.413,2.459-5.632,2.349-1.5-.144-2.2-2.458-1.408-4.225-3.481,1.858-1.8,6.63-1.877,10.326-.109,5.287-1.247,11.707,0,16.426,1.1-.145.279-2.226,1.877-1.877.144,2.287-.49,4.659-3.755,4.691.089-.378.471-.465.469-.938-1.476-.235-1.834,1.023-2.815,0,2.7,1.392-.653,3.485,1.877,4.225-.763,3.361-3.21-.277-4.694-.468.345-.838.854-.069,1.409,0-.8-1.887-.618-1.861-.94-4.224-2.36.944-.55,3.855-1.407,6.1a2.074,2.074,0,0,0,1.877-.938,4.352,4.352,0,0,1,1.409,3.284c-1.476.069-1.614-1.2-1.879-2.346-2.061,1.4-.848,4.894-.469,7.509-3.456.011.317-6.358-3.285-7.04,1.126-1.973-.936-1.971,0-3.755-.006-1.319-1.28,1.119-.939-.939-.5,1.139.619,4.754,0,5.163-1.032.246-3.534-6.048-2.347-6.572-.644-2.287-1.933.766-2.815-.467.188-1.913-1.592-1.851-2.348-2.815-1.057-8.8.6-14.99-.937-20.184,1.772-4.683,2.616-15.17,3.285-22.059C103.73,203.7,104,189.1,109.159,181.02a3.059,3.059,0,0,1-.47,2.346c1.665-.521,2.938-1.342,1.407-1.877m0,2.815c1.256.273,2.391-1.931,1.408-2.346-.144,1.1-1.629.873-1.408,2.346m20.181,31.913c3.069-.056,3.914-.24,5.164-1.4-2.22-.033-4.62-.242-5.164,1.4m-5.63,11.738c1.228.131,2.017-.174,1.877-1.411-.805-.848-1.846.143-1.877,1.411m-4.694.937c1.746-.056,3.786-.518,3.284-1.878-.1,1.626-3.483-.04-3.284,1.878m-18.305,27.222c.609-1.1-.238-1.049.939-1.876-.9-.193-.371-1.82-1.877-1.41.183,1.228.241,2.576.938,3.286" />
    <path d="M511.357,87.221c.621.1.3.552,0,.549,10.065.845,18.689.36,30.757.549-3.1,2.933-9.241,2.2-13.733,2.2-16.838-.026-35.515-1.726-51.626,1.1a2.578,2.578,0,0,1,.547,1.649c21.722.526,44.453-.319,67.556-1.1a1.5,1.5,0,0,0,1.1,1.646c-.478,5.564-8.059,4.024-12.636,5.492,3.89,1.353,8.324.341,10.435,1.1-.658,1.531-3.5.885-3.29,3.295-3.486-1.441-7.2.794-12.086,1.1,1.64,2.141,11.9.451,17.027,1.1-4.847,3.651-11.876,1.278-17.572,2.749.974,1.836,2.4.043,4.941.547-1.1,1.885-4.755,2.042-7.139,2.2-10.933.7-30.642-.311-43.941,2.2a3.572,3.572,0,0,0-2.746-.552,75.567,75.567,0,0,1,0,10.438c-4.4-.6-1.972-5.23-2.744-9.886-.081-.908-2.292.572-3.847,0,.338,4.265-3.981,8.236-1.65,13.728-3.958-.259-1.784-7.055-2.743-10.437-.545-1.914-2.557-3.035-3.3-4.941-2.844-7.346-.615-16.6-2.195-23.069.3-1.218-1.053-.782-1.1-1.646-.488-14.855-4.336-32.789-2.2-49.432.966.133,1.253.945,1.1,2.2,1.217-.071.238-2.332.549-3.3a3.594,3.594,0,0,0,2.749.55v-3.3c-.5-1.5-1.229,1.67-2.2,0,.322-1.143,1.155-1.776,1.647-2.744.977.4.08,1,0,1.647,1.948.693,3.048-3.919,3.294,0,3.571-1.928-.523-7.306,3.846-8.239.71,5-1.152,10.822.547,14.281,2.606-1.726-.375-6.862,1.65-8.239,1.762.9,1.4,1.836,1.1,3.843.97-.485.906-2.436,2.2-1.1v1.648c-.069,2.573-.8-.6-2.2,0,2.069.5.964,4.161,2.748,4.944-2.857,18.557,1.265,29.509.548,48.332,12.249.39,24.555.4,34.6-1.1M169.84,106.169c1.59,2.889,1.058,4.491,2.2,7.69-1.731,1.572-1.561-2.091-3.293-2.2.967,3.062,3.459,4.6,3.843,8.239-3.283-.562-2.177-5.51-6.041-5.49-.634-4.951-1-7.686-5.492-9.338-8.489-14.948-15.991-30.877-26.913-43.39-2.617,12.787,1.538,28.99-1.1,43.39-2.153.5-.4-2.9-1.648-3.295H128.65c-.837,1.649.357,3.616-.549,6.591-4.826-2.318-.437-9.537-3.3-11.534-2.357-18.53-2.16-36.959-3.846-52.727,2.645-4.513.084-9.974,0-14.28-.028-1.562-.228-5.035,1.649-5.494-.548,2.394-.415,3.765.548,5.494,1.778.678.42-1.78,2.2-1.1.044,2.522,2.137,2.991,2.748,4.943,1.323.227,1.195-1,2.745-.549,12.375,12.526,21.41,28.39,32.405,42.293-.91,3.279.884,4.274,2.746,6.041.342-16.311.94-28.711,1.647-45.586,1.266-.565,1.772-1.889,3.847-1.646.89-1.895-1.552-5.336,1.1-6.043,3.645,4.571,1.89,9.248,3.3,15.927.314-3.987.6-9.033,1.1-13.731.328-3.106-2.1-8.52,1.646-8.788.907,9.478,1.745,21.855,1.647,32.955.091.643,1,.462,1.649.548-2.168,2.814-.881,7.413-2.2,10.436,2.495,15.328.579,31.043,0,45.589-2.673.841-1.649-2.016-2.746-2.748-1.433,8.462,9.635,14.8,7.688,21.969a113.452,113.452,0,0,1-8.238-14.279c-.491,1.222.331,4.92-2.746,4.944-.559-5.727.264-11.707-3.847-14.831M136.888,49.6c-2.314-.8-2.326-3.9-4.942-4.392.539,2.2,3.609,6.5,4.942,4.392M166,85.3q.843.8,1.647,1.648c.115,4.53,1.724-5.865,0-4.942-.22,1.427-1.637,1.655-1.647,3.294m2.2,10.988c.152-1.439-.2-2.365-1.648-2.2-.155,1.436.2,2.363,1.648,2.2m5.492,9.884c-.921-2.264,1.08-8.128-.549-10.985-.714,2.273-1.985,9.388.549,10.985m-3.3-5.493c.514-.466,1.175-3.5,0-3.844-.515.465-1.174,3.5,0,3.844m43.353,8.9c1.727,1.151,1.909-3.932,3.846-4.395.654,3.52-4.412,6.66-3.3,10.436,1.553.1,1.278-2.066,2.746-.551a3.075,3.075,0,0,1-.55-2.2,5.457,5.457,0,0,1,1.646,3.3c-1.6-1.066-2.289,2.58-3.842,3.294-4.138.108-2.707-5.35-7.141-4.945-.628-2.888-2.63-3.777-3.295-7.689-2.433.959.578,3.554,0,6.041-3.844-3.661-3.713-11.3-7.688-14.828,2.344.286.339-2.713.547-1.647-1.742-8.9-1.823-26.57-2.745-41.194.986.071,1.159-.672,2.2-.55.187,2.925,1.335,4.891,2.2,7.143.041-6.306,1.948-14.764.549-18.676,3.8-7.2,1.875-15.188,5.494-20.869,2.654,3.445-1.628,15.582,0,21.418,1.349-2.614,3.286-1.384,4.393-4.392,2.647,2.35-.879,9.007,1.1,11.532.543-4.117,1.272-9.8,2.2-14.28.324-1.569-.248-4.406,2.2-4.392A213.941,213.941,0,0,0,211,78.815c1.02-4.276,2.432-12.251,1.1-15.932,3.732-6.311.238-18.347,5.493-24.164-1.433,20.244-6.38,43.827-3.846,66.458,1.447.164.434-2.131,2.2-1.647,0,2.741-1.6,3.884-2.2,6.042m118.793,12.982a4.4,4.4,0,0,1,1.615,3.765c-2.09.8-3.321-1.639-5.379-1.075a1.482,1.482,0,0,1,1.614-1.076c-1.2-1.811-3.261-4.209-5.374-2.153-.03,3.975,6.533,4.616,3.76,8.064a4.05,4.05,0,0,1-3.224-3.225c-1.3-.22-1.172.984-2.686.54-5.579-12.349-15.4-20.452-19.9-33.878,1.268,7.515,6.183,16.043,10.757,22.049.275,2.77,1.1,4.989,3.764,5.375-3.133,1.858,3.579,3.582,1.071,6.454C308.082,115.2,300.189,98.4,294.9,79.535c-2.343,9.668-3.015,21-5.915,30.114-5.79-8.507,2.374-21.924,2.152-33.339-2.685,8.965-4.5,18.8-6.994,27.961.6,2.093,2.271,3.1,2.693,5.378a3.514,3.514,0,0,1-2.693.538,73.931,73.931,0,0,1,3.228,8.064c-1.588.731-3.33.675-4.3-.536-.575.73.131,3.441,2.152,3.225.4,1.654-1.478,1.033-1.08,2.69-3.784-1.235-3.616-6.422-5.911-9.14-.961.477-1.371,1.5-3.228,1.075-8.722-16.552-20.349-30.2-29.575-46.248-1.863,12.814-.978,24.722-2.152,37.1-3.385-.405-1.148,4.7-2.688,8.07-2.111.5-1.355-1.871-3.763-1.078-.465-2.58,1.076-7.167-1.074-8.066-2.758-.077-1.092,2.667-1.077,4.3-1.653.763-2.418.239-3.763-.537-.993,3.034-.645,7.486-1.076,9.678h-2.149c-1.415-21.144,2.814-40.413.537-58.073,1.287-6.918.779-15.422-3.766-20.433,3.72.477,1.854-3.122,1.614-4.841,2.386-1.183,2.914-1.267,4.84-3.225.739.694.532,2.334.538,3.764a46.691,46.691,0,0,1,9.677-1.075c.947-1.812-.362-2.758,0-5.378h2.15c-1,13.98,9.434,23.353,16.132,33.876,6.289,9.872,10.937,20.551,17.745,29.576,2.435-16.534,2.34-36.084,4.3-51.622,2.608.336,3.653-.963,4.3-3.766,2.494-.34,1.366,2.942,1.615,4.841.024,1.951,3.817.127,3.229,2.687,1.5-2.251,1.489-6.033,4.839-6.452.036,4.191-.648,5.361-1.615,9.142,4.49-4.708,2.472-13.189,6.99-17.207,1.788,2.776-.878,6.085-1.611,10.218.078.994,1.82.328,2.151,1.074-.156,9.166.544,15.616,2.685,21.509a3.8,3.8,0,0,0,1.077-1.613c1.638,20.77,16.756,36.876,25.807,53.773-6.527-5.3-10.125-13.535-14.516-20.972,2.563,9.269,9.437,18.88,15.058,26.887q.6-.844,1.2-1.7l.721,1.361a3.368,3.368,0,0,1-.853,1.418" />
    <path d="M305.505,51.246c1.516-4.76,5.318-14.6,1.647-19.223-1.756,7.012-.032,11.708-1.647,19.223m-1.1-3.3c.321-14.472-1.547-.1-.547,1.646.086-.643-.1-1.557.547-1.646M270.353,58.385c3.868,5.391,6.09,10.827,9.883,14.83-5.088-10.654-10.907-20.58-18.121-29.11-.227,7.064,5.3,10.183,8.238,14.28M321.43,79.806a5.082,5.082,0,0,0-1.648-3.846c-.644.807.132,3.522,1.648,3.846M125.369,138.66c2.413.745,2.528,3.72,3.432,5.926-2.416-.741-2.526-3.72-3.432-5.926M16.259,93.483c.424-.549,2.75.421,3.54-1.121-2.61-1.892-5.071-1.373-8.786-1.311-.06-1.054.737-1.227.624-2.338,2.036-.9,6.815.507,8.824-1.039C32.349,75.484,42.452,61.44,55.7,50.645c.294-3.078,3.438-3.214,4.2-5.806.26-1.412-1.054-1.3-.539-2.946,2.992.71,3.843,4.958,5.858.681-2.594-5.782-5.786-11.47-6.2-16.543,2.9,1.041,2.758,5.036,5.186,6.542C63.56,21.623,54.009,11.389,50.031.05,54.748-.668,51.3,6.529,55.81,6.013A79.627,79.627,0,0,0,66.615,28.5c.349.5.856.657,1.753.615.226,1.231-.428,1.55-.626,2.341,3.82-1.046-.372-5.093.69-6.45,4.269.095,2.013,5.442,5.733,8.9a3.94,3.94,0,0,1,5.86.68,12.013,12.013,0,0,0,3.582-3.468c1.457.263,0,2.275-1.208,1.742.177,1.374.566,2.538,1.719,2.963-.106,1.086-2,.331-2.366,1.139.236.925,1.836.531,1.136,2.368A2.589,2.589,0,0,0,84.1,37a14.466,14.466,0,0,1,3.45,4.754,11.053,11.053,0,0,1-1.817,3.493C90.379,51,90,58.3,95.454,61.842c.386,2.58-1.161-.493-1.2,1.156,3.868,3.153,2.869,9.58,8.6,13.055-.559,5.161,6.1,7.827,6.836,13.616,2.642,1.553,3.77,5.948,6.317,8.908.713.83,2.47,1.708,2.9,2.394.549.872-.014,3.406.523,4.121,2.7,3.586,5.7,2.307,11.081,4.872-3.556.447-4.633.34-8.836,1.622a4.154,4.154,0,0,0,1.742,1.2c-1,1.161-2.707,1-3.492-1.814.519,7.784,7.873,13.95,9.034,23.044-6.267-5.687-8.824-14.961-14.942-20.789,1.344,7.177,5.689,11.442,7.94,17.742-2.292,1.656-2.164-3.028-4.054-3.586-2.162.89,1.35.9.552,2.357-.544-.366-2.147-1.4-1.771.559-2.115-2.9-3.351-5.122-6.367-5.97.511-1.786,1.673-1.385.64-3.515-4.1,5.937,5.609,12.376,7.348,18.322-2.924,1.274-4.451-3.771-5.781-5.964-5.329-6.4-8.8-14.6-13.754-21.362-19.866-1.233-48.131-3.569-68.667-2.84a82.627,82.627,0,0,1-7.168,7.521c-.1-2.491,1.76-2.958,2.423-4.66-6.65.341-8.272,10.926-14.313,13.87a3.817,3.817,0,0,1,.634-2.927c-1.886.242-2.108,2.2-4.148,2.285-.317-2.316.916-3.035,1.826-4.084-.028-1.816-2.318,1.78-2.348-.036-.219,2.326-1.845,3.006-4.762,4.037a89.224,89.224,0,0,0,8.981-11.019c-2.652.256-5.857,5.084-9.494,6.312A4.136,4.136,0,0,0,0,119.069c3.806-4.631,8.194-11.831,9.662-16.88,4.876-1.387,4.952-6.776,7.754-7.516-.255-.524-.5-1.055-1.157-1.19M53.775,60.6c2.423-3.671,8.475-6.764,8.4-11.026a51.047,51.047,0,0,0-8.4,11.026M73.1,64.425c-.163-2.537-1.507-3.938-2.855-5.329.424,2.289,1.793,3.663,2.855,5.329M55.672,89.405c1.3-1.955,2.682.814,4.1.653a4.154,4.154,0,0,1,1.2-1.745c.129,1.907,3.835,1.459,4.109.064A1.605,1.605,0,0,1,66.23,90.16c7.743-1.638,10.855.515,19.951.9C81.079,81.165,75.91,71.336,69,63.186c-6.865,8.29-16.82,16.378-20.957,25.512,3.371.429,7.961-2.046,7.625.707M31.177,78.448c2.145-.966,3.441-2.815,4.772-4.623-2.71.386-3.113,3.154-4.772,4.623m1.1,4.716c3.641-1.814,7.2-6.884,8.367-9.264-3.166,2.7-5.321,6.442-8.367,9.264m78.527,10.63c-1.3-1.08-2.094-5.653-4.046-4.172,2.253.516,1.07,4.361,4.046,4.172M47.426,91.037c-.978-.014-1.961-.029-2.936-.046-.232,2.749,2.689,1.615,2.936.046m6.457.1c.458,1.667-.852,1.508-.636,2.926a167.2,167.2,0,0,0,20.55.322c-6.8-4.214-17.746,1.7-19.914-3.248m25.172,5.1c2.913.289,5.611-.329,7.632.118-.708-.135-.351-.657.021-1.173-2.787.164-6.041-1.644-7.653,1.055M113.1,97.356c-.886-.351-1.413-3.953-2.906-1.8,1.3-.055,1.53,3.836,2.906,1.8m-72.85,1.792c-1.859-.525,1.055-.76,1.77-.563-1.846,1.958,3.147.8,4.083,1.828.007-.391.012-.782.018-1.175-.027-.358-.079-.695-.58-.593-2,1.615-2.981-1.408-7.036-.7-.534,1.206,1.905,2.257,1.745,1.206m38.7,3.543c-2.222.418-2.8-.758-4.688-.661.141,1.652,4.6,2.433,4.688.661m36.932,4.106c2.449-.637,2.271,1.272,4.095,1.238-.176-1.372-.564-2.539-1.717-2.962-.66,1.991-.158-1.639-1.75-.614.111,1.109-.684,1.283-.628,2.338M8.332,112.151c2.838-.45,4.187-2.437,5.354-4.614-2.664.628-4.139,2.486-5.354,4.614m100.3,8.039c-1.691-2.639-3.965-4.8-2.238-7.082-4.029.58.55,8.45,2.238,7.082m4.1.652c-.267-2.434-.727-4.691-2.852-5.329.936,1.793,1.128,4.3,2.852,5.329m4.011,6.525c.491-2.022-.509-2.592-1.717-2.965-.31,1.84.7,2.41,1.717,2.965" />
    <path d="M119.621,130.934c2.69,2.224-2.315,6.227,0,0m2.3,2.973c.992-2.516,3.229,1.22,2.879,3.569-2.125-.059-.072-4.169-2.879-3.569" />
    <path d="M123.637,136.871c-.011.587-.018,1.173-.028,1.761-1.594,1.024-1.095-2.6-1.752-.613-.664-.126-.317-.6.008-.589-.086-.689-1.061-.513-1.752-.614-.15-.951.57-1,.612-1.754.4.006.785.014,1.176.017-.127,1.283.452,1.878,1.736,1.792M414.872,21.718v2.147a1.11,1.11,0,1,1,0-2.147m-4.347,8.056c.793-.088.793,3.312,0,3.224-2.062.151-.032-2.353,0-3.224M394.6,92.623c-1.78-.948-4.393-.468-6.28,0,.838-1.743,5.409-2.841,6.28,0m3.859-1.612c1,1.216,3.1-1.418,3.38,1.075-.643-1.614-3.32,1.668-3.38-1.075M441.9,92.623a8.136,8.136,0,0,0-3.863-.537c.713-1.463,3.965-1.516,3.863.537m18.344,18.263a2.5,2.5,0,0,0,1.931.537c.826,3.14-3.714,2.329-4.827,1.61.3-2.425,3.088,1.045,2.9-2.147m-11.1.537c2.84,1.788,4.326-.092,7.725,1.075-1.257,3.149-4.51-1.231-5.793,2.148-1.446-.353.46-1.149,0-2.148-.921.23-1.213,1.158-2.413,1.073-.206-1.122.332-1.421.481-2.148m-74.819,2.685a27.573,27.573,0,0,0,3.382.538c-.364,2.572-1.766.652-3.862,1.073a2.69,2.69,0,0,0,.48-1.611m3.865.538a3.418,3.418,0,0,1,3.376,1.073c-.394.921-3.488.347-3.376-1.073m7.722.537c1.736,1.154,2.992-.381,4.343.536-.474,1.24-3.731,1.58-4.343-.536m15.929,2.687c-1.486-.374-6.5-1.23-5.31-1.076-4.1-.529,4.207-1.34,5.31,1.076m-50.2-.539c.082,1.525-1.634,1.048-.963,3.224-1.276.162-1.588-.746-1.449-2.15.916-.23,1.212-1.156,2.412-1.074m-2.413,6.985c.079,1.661-1.7,2.415-2.412,1.611.332-1.061,1.284-1.433,2.412-1.611m104.261,13.966q-1.843-.1-1.929-2.151c3.031-1.941,1.186-.618,1.929,2.151" />
    <path d="M407.146,36.758c-1.446,1.367.221,2.864-1.446,3.76.078.629.878.453,1.446.537,6.292,18.423,17.118,31.806,24.137,49.421a58.462,58.462,0,0,0,6.277.535c-1.1,2.1-3.831.25-5.309.536,1.5,4.231,2.714,8.8,7.236,9.67.78.8-.764,3.082,1.451,3.223,1.422-.466-1.122-.8-.483-2.148,1.677.695,3.762,1.764,5.789.536-.4,2.232-4.445.423-4.343,3.223,2.729,2.3,6.973-1.617,7.723,2.686-.472-.014-.375-.658-.483-1.074-2.758,2.649-5.349-.873-7.722.537.192,1.4,1.442,1.62,1.45,3.223,1.89-1.2,4.194.539,4.825-.537,1.611,1.539-2.12,3.716-3.377,2.147.228,2.382-.668,2.673,0,4.3-1.113.164-.539-1.552-1.448-1.611-1.447.353.46,1.149,0,2.15-1.148.446-2.249-2.658-2.414,0-.986-.158-.947-1.454-1.934-1.612-1.426,1.448,4.687,5.054,0,5.372-.35-1.466.96-1.082.966-2.15-3.1-.123-2.544-4.329-6.274-3.76,2.038,4.4,6.072,9.306,6.76,13.429-1.44-1.8-3.716-2.669-3.38-6.447-.491.349-.5,1.237-1.45,1.075.691-1.594-1.634-3.34-1.446-1.075-.241-1.374-2.016-3.8-2.9-2.686-1.827-.914,1.049-.882.966-1.611-1.672-1.362-1.865-4.372-5.309-3.759,2.873,8.8,10.254,15.446,12.064,23.635-4.358-5.887-8.908-11.572-12.064-18.8h-1.934c.9-1.949-.685-3.231-1.448-4.834-18.1-.551-32.274-.776-53.094-1.075-1.706.158,1.7,1.455,0,1.612-2.573.57-.121-1.131-1.448-1.612-1.093.3.584.839-.485,1.612-.565-.086-.407-.979-.48-1.612-1,.325-3.355-.865-2.9,1.075-4.731-3.069-9.214,3.118-11.581,9.67-1.894.486-3.012.654-4.346-.539,1.508-.21,1.426-3.222,2.412-1.075,1.358-.542-.132-2.281,0-3.222,1.756.832,2.227-3.808,3.863-4.834-.319-1.608-1.032.513-1.929,0-.9.081-.3,1.82-.967,2.149-1.417-.457.625-1.351,0-2.687-2.324-.032-5.168,2.934-6.761,6.447-3.732-1.541-3.575,5.606-7.236,5.908,2.573-5.368,6.147-9.628,9.171-14.5-1.4-1.8-3.6-.206-4.83,1.072-2.065-2.343-4.427-.929-6.755-1.61.421-.786.381-2.081,1.931-1.611a13.164,13.164,0,0,1-.967-3.224c2.126.238,4.74,1.169,7.242-1.075-.441-1.467-1.69.954-2.417-.537-1.186-.634.989-2.028-.48-2.684.435-1.809,1.079-.064,1.931-1.075-1.489-2.516,4-5.432,1.446-7.52,2.331-.806,2.87-2.229,4.346-1.611,12.923-17.83,27.982-34.623,38.613-51.031-1.442-1.258-2.064-3.428-3.379-4.834.337-1.686,1.29-.7,2.418-.538-.056-2.117-2.1-1.641-.968-3.76,1,.137.132,2.36.968,2.685,1.268.16.38-2.084,1.925-1.61a1.408,1.408,0,0,0,.488,2.148c-.33.724-1.474-.468-1.931,1.075.674,1.037,2.292,1.028,2.413,2.685,2.128-1.52-.538-3.074-.482-5.371,1.788-.023,1.728,2.013,2.9,2.686.5-1.246,1.105-3.986,2.9-2.149.93-2.161-.453-4.331,0-7.521,2.341-.1.9,4.007,3.86,3.223-.417,2.066-1.069,4.346,1.933,3.761-.256,2.028-.681,2.52.483,3.758,1.647-1.836,4.419-1.238,5.794-2.147,1.087.3-.589.838.478,1.612m-12.068.535c1.236.062,1.691.988,2.414,1.613a21.192,21.192,0,0,0-1.93,3.76,10.115,10.115,0,0,0,2.9-1.073c.884-2.986-1.1-4.942-2.413-6.985-.208,1.022-1.039,1.352-.967,2.685m11.59,9.671c-.86-1.04-1.355-5.268-2.9-3.761,1.4.433,1.914,4.641,2.9,3.761m-28,21.485c2.054-5.8,8.33-9.668,9.169-15.04a4.768,4.768,0,0,0,2.9-3.76c-1.364.445-1.253-.757-2.416-.537.49,1.428.506,2.735-.479,3.762-1.2-1.078-3,1.878-4.827,3.76a1.341,1.341,0,0,1,1.447,1.072c-1.239,1.18-1.7,4.059-3.86,2.685.348,1.466-.96,1.082-.966,2.152.654,1.3.964.334,1.451,1.072-1.11.94-3.06,3.733-2.414,4.834m.963-4.834c-1.652-.2-3.09,2.608-1.93,3.761.139-1.817,1.5-2.267,1.93-3.761m23.17-9.667h1.45c-.54-1.016-.681-2.469-1.934-2.685-.236,1.685,1.663,1.416.484,2.685m3.864,5.908a4.745,4.745,0,0,0-2.414-4.3,7.316,7.316,0,0,0,2.414,4.3m-6.76,14.5c0,.3.391.609.483,0-.973-.6-2.815-1.641-1.451-3.224-3.112-1.029-2.549-4.142-3.378-5.372-.687.48-2.371-.924-3.859-2.148.235,2.056-1.678,1.716-.968,4.3,2.138.765,1.262-1.819,2.9-1.614-.549,2.078-2.36,2.747-3.86,3.762-.246-1.689,1.139-2.195-.482-2.686-.559,1.334-1.322,1.915,0,2.686-.614.748-2.367.232-2.413,1.611.641.54,1.8.508,1.931,1.612-.638.008-.446.94-.967,1.074.081-1.343-.743-1.682-1.446-2.149.663,2.177-1.049,1.7-.968,3.224,1.207.708,1.512-2.124,1.929-.538-1.222,1.5-1.746,3.787-3.379,4.834-.4-2.417,1.96-1.76,1.933-3.759a2.148,2.148,0,0,1-1.449-.537c-.362,3-2.791,3.7-3.375,6.444,1.56.665.368-1.737,1.928-1.073,0,.538.39.64.483,1.073-1.869.014-2.373,4.4-3.862,1.611-.539,1.694-.043,1.217,0,3.225,2.19.155,2.892.786,4.342-.539,6.352,2.088,17.382,2.305,23.654,1.615-2.479-4.229-6.46-9.64-7.722-13.431m0-5.372c-.511-1.85-.993-4.128-2.9-4.834.6,1.682,1.752,5.545,2.9,4.834m10.617,16.652C408.478,77,404.051,71,399.908,64.69a67.116,67.116,0,0,0,10.617,20.949M413.9,69.524c.208-2.022-1.021-2.445-1.927-3.224a5.019,5.019,0,0,0,1.927,3.224M372.4,74.359c1.091-1.827,2.464-3.34,3.379-5.372-1.827-.778-.927,1.476-2.417,1.075,1,2.576-2.855,2.5-.962,4.3m2.9-1.611c.3-1.457,2.016-1.337,1.93-3.224-1.213.118-2.624,2.762-1.93,3.224M363.707,85.1c2.947-1.581,8.083-8.465,7.236-10.744-2.178,3.839-5.027,6.938-7.236,10.744m56.958-2.15c-.722-2.958-1.726-5.6-3.864-6.982,1.217,2.407,1.842,5.47,3.864,6.982m-60.339,9.133c-.4-2.436,4.2-3.126,1.45-4.834.349,2.2-3.241,2.806-1.45,4.834m20.759,2.147c-.15.019-1.257-.33-.968-.536,1.923-1.379,4.189,1.226,6.759,1.611.073-.632-.085-1.525.479-1.611a1.456,1.456,0,0,1,.964,1.611c1.762-2.341,2-.125,3.384-.538,4-.491,10.144.341,16.41,0,1.039,1.948-3.276.548-1.445,1.613a6.525,6.525,0,0,1,3.375,0c.6-1.738-1.561-.411-.962-2.15.294.158,1.856,1.338,1.929,0,.217-1.364-2.231-2.354-2.9-4.3-12.957-.115-21.544-1.938-30.892-1.075.618,2.123-1.408,1.3-1.447,2.686,2.719-.106,3.846-.48,5.311,1.076-2.7-.478-1.8.547-2.414,1.61-1.809-.361.354-1.785-1.45-2.147-.106,3.031-2.879,1.013-3.379,2.684a52.358,52.358,0,0,0,7.243-.537m35.233,2.15c.845-.148,2.408,1.512,2.9,0-2.751-.7-1.8-5.513-4.825-5.907-.492,3.605,3.93,3.71,1.928,5.907m-29.442,10.2c1-.32,3.169.664,3.376-.537-.913-.029-2.778-1.2-3.376.537m5.789,0c1.368.452,2.982.624,4.347,1.075a2.468,2.468,0,0,0-.967-2.15c-.384,2.665-2.817-1.783-3.38,1.075m10.622,1.612c-.366-3.184,2.689-.1,2.9-1.612-1.483-1.163-4.97.284-5.792,0a3.821,3.821,0,0,0,2.9,1.612m12.548,1.075c.25-.8.718-1.353.966-2.149-1.4.148-8.329-1.992-10.133.537,1.091.78,1.981-1.538,1.928,1.074h1.929c-.331-1.444,1-1.039,1.452-1.611,2.3,3.061,2.534-.679,3.858,2.149m15.448.537c.332-1.8-.807-1.964-1.93-2.149-.226,1.683,1.213,1.515,1.93,2.149m-53.1,1.074a3.608,3.608,0,0,1-3.379,0c-.395,1.948,3.642,1.3,3.379,0m72.886-4.835c-.2-1.123.328-1.423.485-2.148,1.149.332.792,2.34,2.895,1.61-.927,2.521-1.849-.872-3.38.538M394.6,117.331c-.823.2-.911-.419-.968-1.073-1.136.788-.9,1.134-2.412.537.858-1,3.106-1.933,3.38.536m54.061,13.428a9.967,9.967,0,0,1,2.413,3.762c-1.517-.458-2-2.07-2.413-3.762m-6.758,1.075c1.515.642.165,1.839,1.449,3.224-.125.669-2.821-2.112-1.449-3.224" />
  </g>
</svg>
