<svg id="Layer_1" data-name="Layer 1" xmlns="http://www.w3.org/2000/svg" viewBox="0 0 546 113.208">
  <g id="crea8-u-logo" fill="#ffffff">
    <path d="M42.56,2.41A63.765,63.765,0,0,1,88.52,8.13c-.05,11.07.03,22.15-.05,33.22C83.21,35.32,77.78,29,70.37,25.57a32.92,32.92,0,0,0-22.97-.98C37.03,27.97,29.03,37.21,26.55,47.75a41.816,41.816,0,0,0,.57,21.19c2.83,9.63,10.38,17.94,20.06,20.9a34.042,34.042,0,0,0,24.1-1.62c7-3.56,12.09-9.74,17.22-15.5v33.06c-21.73,11.92-51.12,10.51-69.89-6.4A54.123,54.123,0,0,1,0,61.07V54.01C.76,29.86,19.3,8.13,42.56,2.41Z" transform="translate(0 -0.441)" />
    <path d="M153.42,1.52c9.86-2.77,20.34.21,28.86,5.4q-5.7,11.445-11.44,22.87c-4.34-3.04-9.46-5.46-14.9-5.07a16.826,16.826,0,0,0-14.22,8.02c-3.67,6.04-4.47,13.3-4.72,20.22-.02,19.18.02,38.36-.01,57.54q-12.5,0-24.97.01-.06-53.5-.01-107.01,12.48-.015,24.97-.01c.02,3.03.03,6.06.01,9.08C141.78,8.03,146.8,3.13,153.42,1.52Z" transform="translate(0 -0.441)" />
    <path d="M199.32,21.36A46.164,46.164,0,0,1,229.94,1.48c11.83-2.02,24.49-1.16,35.41,4.1A45.892,45.892,0,0,1,287.97,31.1c3.8,10.15,4.57,21.16,3.99,31.9H215.45c.71,7.12,2.86,14.38,7.78,19.76,7.68,8.84,21.33,10.74,31.79,6.19,7.67-3.83,12.26-11.5,17-18.31,7.08,3.85,14.09,7.83,21.13,11.77-7.62,13.29-19.12,25.5-34.45,29.28-15.57,3.59-33.16,2.55-46.72-6.59-12.18-8.12-19.77-21.96-21.69-36.32-2.19-16.14-.34-33.69,9.03-47.42m28.1,6.07c-5.17,3.54-8.57,9.11-10.28,15.05,16.42.01,32.85.06,49.28-.02-1.84-6.8-5.7-13.53-12.23-16.73C245.8,21.7,235.12,21.96,227.42,27.43Z" transform="translate(0 -0.441)" />
    <path d="M314.15,10.17c12.56-13.04,35.99-12.98,48.4.23,11.56,11.59,12.13,33.09-.49,44.13,14.99,11.85,15,36.89,1.3,49.72-10.84,10.47-28.28,11.84-41.67,5.86-11.52-5.21-19.68-17.37-19.23-30.14-.51-9.68,3.38-19.93,11.72-25.36-12.67-11.18-11.96-33-.03-44.44m19.21,11.28c-5.11,2.2-8.77,7.91-7.73,13.53.86,6.34,7.05,11.49,13.49,10.77,6.79-.32,12.48-7.02,11.64-13.8-.46-8.09-9.98-13.99-17.4-10.5m-.02,44.04a14.567,14.567,0,0,0-9.66,11.61c-1.35,8.27,5.79,16.85,14.29,16.44,8.11.25,15.16-7.58,14.25-15.61C351.77,69.03,341.76,62.25,333.34,65.49Z" transform="translate(0 -0.441)" />
    <path d="M520.76,3.5c8.41.01,16.83-.06,25.24.05V66.59c-.67,6.5-.86,13.14-2.89,19.41-2.71,8.9-9.33,16.19-17.12,21.03-10.41,6.33-23.14,7.45-35,5.96-13.03-1.74-25.32-9.51-31.78-21.06-4.6-8.51-5.03-18.48-4.97-27.94q.03-30.24.01-60.48,12.375-.03,24.74-.01c.03,19.5-.01,39,.02,58.5.16,7.72.35,16.19,5.29,22.57,5.78,7.41,16.9,8.26,25.1,4.88,8.25-3.58,11.01-13.33,11.29-21.58C520.84,46.42,520.69,24.96,520.76,3.5Z" transform="translate(0 -0.441)" />
    <path d="M389.76,45.25q24.615-.015,49.23,0c.02,7.25.01,14.5.01,21.75q-24.63,0-49.25-.01C389.75,59.75,389.74,52.5,389.76,45.25Z" transform="translate(0 -0.441)" />
  </g>
</svg>
