<svg xmlns="http://www.w3.org/2000/svg" viewBox="0 0 1834 500">
  <g id="wfs">
    <g id="wfs-dark-blue" fill="#063257">
      <path d="M0,0H1300V500H0V0M585.35,123.44c-4.59,8.03-4.03,20.1,3.75,26.02-1.72,8.11-3.51,16.21-5.24,24.32q6.765.015,13.55,0c3.19-10.2,6.93-20.23,9.73-30.54,1.84-7.68,1.94-17.29-4.46-22.94-5.15-4.65-14.04-2.87-17.33,3.14m-333.89.32c-11.98,1.89-22.28,10.05-28.35,20.34-8.15,13.49-10.02,29.97-7.84,45.37,2.09,13.85,8.71,27.61,20.31,35.9,10.4,7.64,24.68,9.2,36.68,4.7,9.71-3.7,17.52-11.43,22.38-20.51,7.12-13.11,8.7-28.66,6.61-43.27-2.09-13.91-8.76-27.72-20.45-36a39.2,39.2,0,0,0-29.34-6.53m391.26.13c-8.55,1.36-16.64,6.19-21.29,13.56-5.36,8.46-6.41,19.08-4.54,28.76a26.369,26.369,0,0,0,10.7,16.21c8.92,5.86,19.98,6.74,29.33,11.65,4.78,2.28,5.3,9.84,1.05,12.88-2.59,1.88-5.91,2.22-9.01,2.38-9.89.17-19.45-4.09-26.93-10.38-2.46,7.36-4.9,14.72-7.37,22.08,8.07,7.11,18.8,10.59,29.39,11.39,9.23.69,19.1-.91,26.55-6.74,7.71-5.69,11.79-15.23,12.24-24.63.43-7.89-.84-16.49-6.32-22.57-6.39-7.86-16.82-10.02-26-12.92-3.77-1.34-8.03-2.29-10.85-5.31-3.39-4.46-.51-11.59,4.82-12.93,9.95-2.79,20.25,1.5,28.28,7.27,2.29-7.42,4.62-14.83,6.92-22.25-10.43-7.85-24.22-10.5-36.97-8.45m438.16,6.93c-7.18,5.86-10.79,15.16-11.17,24.25-.5,8.45,1.2,17.63,7.43,23.81,8.86,9.36,22.83,9.4,33.63,15.35,4.25,2.24,4.89,8.78,1.56,12.07-2.74,2.57-6.75,2.92-10.32,3.04-9.72.01-19.03-4.24-26.41-10.38q-3.66,11.04-7.35,22.07c7.67,6.76,17.77,10.23,27.83,11.26,9.38.92,19.49-.31,27.29-6,7.33-5.05,11.75-13.55,12.79-22.28.99-8.68.12-18.41-5.83-25.28-8.63-10.86-23.8-10.66-35.19-16.85-4.2-2.37-4.22-8.65-1.16-11.94,2.7-3.07,7.1-3.51,10.95-3.49,7.85.11,15.12,3.71,21.43,8.12q3.465-11.115,6.92-22.23c-8.89-6.73-20.3-9.58-31.33-9.06-7.56.3-15.24,2.58-21.07,7.54m72.87-.07c-7.49,6.06-11.12,15.83-11.29,25.28-.37,8.22,1.53,17.02,7.57,22.98,8.77,9.07,22.35,9.33,33.05,14.94,4.78,2.13,5.58,9.43,1.64,12.72-2.72,2.19-6.4,2.54-9.76,2.67-9.77.05-19.16-4.19-26.56-10.38-2.41,7.37-4.92,14.7-7.37,22.05,10.02,8.73,23.84,12.18,36.91,11.43,9.56-.47,19.12-4.83,24.88-12.63,6.2-8.42,7.59-19.57,5.71-29.65a26.393,26.393,0,0,0-11.05-16.64c-8.77-5.71-19.55-6.61-28.8-11.18-4.59-1.97-5.25-8.35-2.28-11.97,2.45-3.21,6.8-3.89,10.6-3.92,8.1-.09,15.66,3.55,22.14,8.12q3.465-11.115,6.92-22.23c-8.55-6.5-19.47-9.36-30.11-9.11-7.93.13-16.06,2.34-22.2,7.52M81.89,125.34q12.78,52.56,25.58,105.11c7.98.01,15.97,0,23.95.01q7.86-31.845,15.7-63.67,7.485,31.83,15.01,63.66,11.985.015,23.97,0,12.78-52.56,25.56-105.11c-7.13-.02-14.27.01-21.4-.02q-8.25,33.7-16.47,67.4-7.935-33.69-15.82-67.39c-6.87.01-13.74-.01-20.61.01-5.5,22.28-11.07,44.54-16.57,66.83q-7.875-33.435-15.81-66.84c-7.7.01-15.39-.01-23.09.01m231.78,0q0,52.56,0,105.11,10.335.015,20.66,0,.015-26.97,0-53.96Q344.4,198.3,354.4,220.12h9.99q10.1-22.53,20.15-45.09c.04,18.47.23,36.95.19,55.42q10.305.015,20.6,0c-.07-35.04-.03-70.08-.23-105.12q-9.21,0-18.43.01-13.47,30.225-26.93,60.44-13.8-30.225-27.61-60.44-9.225-.015-18.46,0m107.34-.01q-.03,52.56-.01,105.13,31.665-.015,63.33-.01V207.4q-20.565-.015-41.12-.01-.015-9.555,0-19.12,17.49,0,34.99,0,.015-11.13,0-22.27c-11.66-.01-23.33.01-35,0q0-8.775.01-17.55,19.83.015,39.66,0V125.33q-30.93,0-61.86,0m75.53.01q.015,52.56.01,105.11,10.995.015,21.98,0,.015-27.885.01-55.77,17.3,27.9,34.64,55.77H571.6q.015-52.56.01-105.11-10.95-.015-21.88-.01-.015,27.9-.01,55.79-17.34-27.885-34.65-55.78-9.27-.03-18.53,0m229.19,0q0,52.56,0,105.11,11.235.015,22.47,0,.015-18,.01-36,17.355.015,34.73,0,0-11.52-.01-23.06H748.21q-.015-11.46,0-22.94,19.695.015,39.39,0c.01-7.7,0-15.41.01-23.11q-30.945-.015-61.88,0m72.28-.01q-.03,52.56-.01,105.13c7.44-.01,14.89,0,22.33-.01V125.34c-7.44-.02-14.88,0-22.32-.01m30.66.01q0,11.82,0,23.66c8.07.01,16.14-.01,24.21,0q0,40.725,0,81.45,11.19.015,22.39,0,.015-40.725,0-81.45c8.02-.01,16.04.01,24.06,0V125.34q-35.325-.015-70.66,0m78.87,0q.015,52.56.01,105.11,10.98.015,21.98,0,.015-27.825.01-55.66,17.325,27.825,34.6,55.67,9.225-.015,18.46-.01.015-52.56.01-105.11-10.98-.015-21.94,0,0,27.885,0,55.77-17.34-27.885-34.66-55.78-9.24,0-18.47.01m90.67-.01V230.45q31.695.015,63.39,0,.015-11.52,0-23.05-20.625-.015-41.26-.01c-.02-6.37-.01-12.74-.01-19.11q17.5-.015,35-.01V166c-11.67-.01-23.33.01-35-.01,0-5.84-.01-11.69.01-17.53q19.875-.015,39.78-.01V125.34q-30.96-.015-61.91-.01M154.05,270.02c-5.6,8.25-6.87,18.79-5.25,28.47a26.37,26.37,0,0,0,11.22,17.47c8.8,5.62,19.57,6.59,28.77,11.31,4.67,2.06,5.59,9.03,1.97,12.46-2.62,2.38-6.36,2.76-9.74,2.94-9.88.15-19.42-4.11-26.88-10.4q-3.675,11.055-7.36,22.09c9.06,7.93,21.35,11.44,33.23,11.53,8.79.13,17.91-2.35,24.51-8.37,7.49-6.54,10.79-16.81,10.49-26.56-.01-6.95-1.78-14.2-6.6-19.42-7.1-8.4-18.59-10.13-28.45-13.51-3.37-1.35-7.67-2.43-9.14-6.16-1.82-4.72,1.41-10.35,6.31-11.38,9.83-2.44,19.85,1.74,27.74,7.43q3.48-11.13,6.93-22.25c-10.39-7.82-24.13-10.49-36.85-8.47a31.16,31.16,0,0,0-20.9,12.82m256.22-11.83c-10.34,3.12-18.83,10.91-24.02,20.25-7.58,13.46-9.18,29.59-7.04,44.7,2.08,13.7,8.54,27.41,20.05,35.63,10.06,7.42,23.8,9.01,35.53,5,8.91-3.02,16.15-9.74,20.94-17.73q-7.155-8.6-14.28-17.21c-2.84,4.25-6.23,8.43-10.99,10.62a18.746,18.746,0,0,1-21.1-3.87c-6.35-6.4-8.39-15.81-8.39-24.54.05-8.5,2.07-17.59,8.12-23.9a18.821,18.821,0,0,1,19.74-4.83c5.53,1.92,9.5,6.56,12.63,11.31,4.73-5.77,9.53-11.48,14.27-17.25a43.833,43.833,0,0,0-11.97-13.1c-9.56-6.81-22.33-8.37-33.49-5.08m589.14-.53c-11.18,2.68-20.52,10.76-26.12,20.64-7.86,13.63-9.57,30.1-7.16,45.45,2.24,13.5,8.81,26.87,20.15,34.95,10.51,7.72,24.98,9.25,37.06,4.56,9.66-3.81,17.39-11.6,22.18-20.7,7.04-13.18,8.53-28.74,6.37-43.36-2.16-13.79-8.86-27.48-20.5-35.65-9.11-6.59-21.14-8.5-31.98-5.89m-774.28,1.01V363.79c7.47-.01,14.94,0,22.41-.01V336.34c8.37-.29,16.98.9,25.12-1.58a31.085,31.085,0,0,0,17.97-14.1c5.08-8.57,6.22-18.92,5.36-28.69-.78-9.17-4.26-18.45-11.12-24.8-6.11-5.74-14.58-8.49-22.87-8.5q-18.435-.03-36.87,0m81.75,0q0,52.56,0,105.12,31.695,0,63.39-.01,0-11.52,0-23.05-20.58-.015-41.15,0V321.61q17.5,0,35-.01.015-11.13,0-22.26-17.5-.015-35-.01V281.79h39.67V258.67q-30.96,0-61.91,0M465.39,363.78c7.49.01,14.99,0,22.48.01V258.67q-11.235-.015-22.47,0-.015,52.56-.01,105.11m28.67,0q11.445.015,22.9,0,3.1-10.23,6.21-20.45c11.05.02,22.1-.01,33.14.01,2.06,6.82,4.14,13.62,6.19,20.44q11.67.015,23.35,0-17.475-52.56-34.92-105.11-11.025,0-22.05,0-17.445,52.545-34.82,105.11M592,258.67V363.79h59.94V340.13h-37.6q-.015-40.74-.01-81.46-11.16-.015-22.33,0m68.67,0V363.79q11.16,0,22.33,0V258.67q-11.175,0-22.33,0m35.13,0q-.015,11.835,0,23.66,19.32.015,38.63.01-19.35,30.645-38.72,61.29a4.716,4.716,0,0,0-.92,3.31c-.01,5.61.02,11.23.01,16.85q35.325,0,70.66-.01c-.01-7.88,0-15.77-.01-23.65q-20.655-.015-41.32,0,19.395-30.675,38.77-61.34a4.464,4.464,0,0,0,.89-2.81c.03-5.77-.03-11.54,0-17.31q-34,0-67.99,0m104.63,0q-17.37,52.575-34.79,105.12c7.63-.01,15.26.01,22.9-.01,2.05-6.82,4.13-13.62,6.18-20.44,11.05-.02,22.1,0,33.15-.01,2.09,6.82,4.12,13.65,6.23,20.46,7.76-.01,15.53,0,23.3-.01q-17.385-52.575-34.9-105.12c-7.36.01-14.72,0-22.07.01m51.78,0v23.66c8.06.01,16.12-.01,24.18.01v81.44q11.19.015,22.4.01V282.34c8.02-.02,16.05,0,24.08-.01V258.67q-35.325,0-70.66,0m78.85,0V363.79q11.19-.015,22.39,0,.015-52.56,0-105.12-11.19-.015-22.39,0m133.33,105.11q10.965.015,21.94.01V308.07q17.34,27.84,34.63,55.72h18.49q.015-52.56,0-105.12-11,0-21.98,0-.015,27.87-.01,55.74-17.31-27.885-34.63-55.74H1064.4Q1064.385,311.23,1064.39,363.78Z" />
      <path d="M253.46,148.62a17.386,17.386,0,0,1,16.24,3.64c5.98,5.17,8.79,13.12,9.53,20.8.84,9.08-.47,18.81-5.83,26.41-3.45,4.97-9.23,8.57-15.41,8.34-6.37.04-12.12-3.98-15.46-9.21-5.34-8.25-6.22-18.58-4.91-28.11C238.99,161.35,244.04,151.47,253.46,148.62Z" />
      <path d="M1005.36,281.65a17.815,17.815,0,0,1,17.06,5.89c5.63,6.39,7.76,15.16,7.73,23.51.07,8.1-1.82,16.56-6.98,22.98-3.63,4.56-9.37,7.57-15.27,7.09-6.65-.29-12.36-4.89-15.49-10.54-5.07-8.97-5.6-19.93-3.48-29.84C990.87,292.32,996.38,283.58,1005.36,281.65Z" />
      <path d="M247.54,282.2c6.09.38,12.44-.92,18.35,1.02,6.55,2.53,8.31,10.47,7.62,16.76-.24,5.34-3.42,10.96-8.93,12.24-5.6,1.14-11.37.34-17.04.58Z" />
      <path d="M539.73,288.1q5.04,16.65,10.04,33.3c-6.69-.01-13.38,0-20.07-.01Q534.71,304.74,539.73,288.1Z" />
      <path d="M801.27,321.4c3.35-11.1,6.67-22.2,10.04-33.28q5.01,16.635,10.03,33.27C814.65,321.4,807.96,321.39,801.27,321.4Z" />
    </g>
    <g id="wfs-purple" fill="#af228b">
      <path d="M1300,0h534V500H1300V0m365.74,188.74c-9.09.78-18.1,5-23.45,12.56-7.65,10.88-8.84,25.88-3.51,38,4.23,9.48,13.53,15.34,22.89,18.94,6.82,2.88,14.59,3.8,20.61,8.39,5.99,4.92,5.47,15.39-.96,19.71-5.33,3.33-13.11,2.32-17.21-2.52-3.89-4.31-4.82-10.28-5.55-15.82-8.81.7-17.61,1.47-26.41,2.19.96,12.83,4.75,27,15.44,35.16,7.08,4.91,15.93,6.23,24.37,6.46,9.02.23,18.59-1.22,26.05-6.68,8.98-6.49,13.87-17.39,15.14-28.17,1.17-10.37-.48-21.68-7.08-30.07-5.17-6.63-12.95-10.42-20.66-13.28-6.55-2.75-13.72-3.78-20.08-6.94-5.82-2.89-5.09-12.04.37-14.88,4.97-2.33,11.79-1.16,15.07,3.46,2.3,3.13,2.95,7.05,3.68,10.77,8.72-.63,17.43-1.34,26.15-2.02-1.02-10.31-3.78-21.54-12.15-28.4-9.1-7.33-21.57-7.95-32.71-6.86m-246.33,1.66q9.975,59.685,19.92,119.37,13.62.015,27.24,0,7.77-37.41,15.57-74.81,7.815,37.41,15.64,74.82H1525q9.885-59.685,19.74-119.37-13.14-.03-26.26-.01c-3.16,22.07-6.25,44.15-9.42,66.22-4.63-22.06-9.17-44.14-13.79-66.21q-13.155-.03-26.29-.01-6.915,33.21-13.76,66.41-4.725-33.195-9.41-66.42-13.2.015-26.4.01m134.32.01q0,59.685.01,119.36,13.95.015,27.92,0,0-24.375.01-48.76c11.55-.02,23.1,0,34.66-.02q0-12.09,0-24.18c-11.56-.02-23.11,0-34.66-.01q-.015-10.335,0-20.68c13.53-.02,27.06.01,40.59-.01q.015-12.855.01-25.7Q1588,190.38,1553.73,190.41Z" />
    </g>
    <g id="wfs-text" fill="#fff" >
      <path d="M585.35,123.44c3.29-6.01,12.18-7.79,17.33-3.14,6.4,5.65,6.3,15.26,4.46,22.94-2.8,10.31-6.54,20.34-9.73,30.54q-6.78.015-13.55,0c1.73-8.11,3.52-16.21,5.24-24.32C581.32,143.54,580.76,131.47,585.35,123.44Z" />
      <path d="M251.46,123.76a39.2,39.2,0,0,1,29.34,6.53c11.69,8.28,18.36,22.09,20.45,36,2.09,14.61.51,30.16-6.61,43.27-4.86,9.08-12.67,16.81-22.38,20.51-12,4.5-26.28,2.94-36.68-4.7-11.6-8.29-18.22-22.05-20.31-35.9-2.18-15.4-.31-31.88,7.84-45.37,6.07-10.29,16.37-18.45,28.35-20.34m2,24.86c-9.42,2.85-14.47,12.73-15.84,21.87-1.31,9.53-.43,19.86,4.91,28.11,3.34,5.23,9.09,9.25,15.46,9.21,6.18.23,11.96-3.37,15.41-8.34,5.36-7.6,6.67-17.33,5.83-26.41-.74-7.68-3.55-15.63-9.53-20.8A17.386,17.386,0,0,0,253.46,148.62Z" />
      <path d="M642.72,123.89c12.75-2.05,26.54.6,36.97,8.45-2.3,7.42-4.63,14.83-6.92,22.25-8.03-5.77-18.33-10.06-28.28-7.27-5.33,1.34-8.21,8.47-4.82,12.93,2.82,3.02,7.08,3.97,10.85,5.31,9.18,2.9,19.61,5.06,26,12.92,5.48,6.08,6.75,14.68,6.32,22.57-.45,9.4-4.53,18.94-12.24,24.63-7.45,5.83-17.32,7.43-26.55,6.74-10.59-.8-21.32-4.28-29.39-11.39,2.47-7.36,4.91-14.72,7.37-22.08,7.48,6.29,17.04,10.55,26.93,10.38,3.1-.16,6.42-.5,9.01-2.38,4.25-3.04,3.73-10.6-1.05-12.88-9.35-4.91-20.41-5.79-29.33-11.65a26.369,26.369,0,0,1-10.7-16.21c-1.87-9.68-.82-20.3,4.54-28.76C626.08,130.08,634.17,125.25,642.72,123.89Z" />
      <path d="M1080.88,130.82c5.83-4.96,13.51-7.24,21.07-7.54,11.03-.52,22.44,2.33,31.33,9.06q-3.465,11.115-6.92,22.23c-6.31-4.41-13.58-8.01-21.43-8.12-3.85-.02-8.25.42-10.95,3.49-3.06,3.29-3.04,9.57,1.16,11.94,11.39,6.19,26.56,5.99,35.19,16.85,5.95,6.87,6.82,16.6,5.83,25.28-1.04,8.73-5.46,17.23-12.79,22.28-7.8,5.69-17.91,6.92-27.29,6-10.06-1.03-20.16-4.5-27.83-11.26q3.675-11.025,7.35-22.07c7.38,6.14,16.69,10.39,26.41,10.38,3.57-.12,7.58-.47,10.32-3.04,3.33-3.29,2.69-9.83-1.56-12.07-10.8-5.95-24.77-5.99-33.63-15.35-6.23-6.18-7.93-15.36-7.43-23.81C1070.09,145.98,1073.7,136.68,1080.88,130.82Z" />
      <path d="M1153.75,130.75c6.14-5.18,14.27-7.39,22.2-7.52,10.64-.25,21.56,2.61,30.11,9.11q-3.435,11.13-6.92,22.23c-6.48-4.57-14.04-8.21-22.14-8.12-3.8.03-8.15.71-10.6,3.92-2.97,3.62-2.31,10,2.28,11.97,9.25,4.57,20.03,5.47,28.8,11.18a26.393,26.393,0,0,1,11.05,16.64c1.88,10.08.49,21.23-5.71,29.65-5.76,7.8-15.32,12.16-24.88,12.63-13.07.75-26.89-2.7-36.91-11.43,2.45-7.35,4.96-14.68,7.37-22.05,7.4,6.19,16.79,10.43,26.56,10.38,3.36-.13,7.04-.48,9.76-2.67,3.94-3.29,3.14-10.59-1.64-12.72-10.7-5.61-24.28-5.87-33.05-14.94-6.04-5.96-7.94-14.76-7.57-22.98C1142.63,146.58,1146.26,136.81,1153.75,130.75Z" />
      <path d="M81.89,125.34c7.7-.02,15.39,0,23.09-.01q7.935,33.42,15.81,66.84c5.5-22.29,11.07-44.55,16.57-66.83,6.87-.02,13.74,0,20.61-.01q7.95,33.69,15.82,67.39,8.205-33.705,16.47-67.4c7.13.03,14.27,0,21.4.02Q198.9,177.9,186.1,230.45q-11.985.015-23.97,0-7.515-31.83-15.01-63.66-7.845,31.83-15.7,63.67c-7.98-.01-15.97,0-23.95-.01Q94.63,177.9,81.89,125.34Z" />
      <path d="M313.67,125.34q9.225-.015,18.46,0,13.8,30.225,27.61,60.44,13.47-30.21,26.93-60.44,9.21-.015,18.43-.01c.2,35.04.16,70.08.23,105.12q-10.305.015-20.6,0c.04-18.47-.15-36.95-.19-55.42q-10.035,22.56-20.15,45.09H354.4q-10.05-21.81-20.07-43.63,0,26.985,0,53.96-10.335.015-20.66,0Q313.655,177.89,313.67,125.34Z" />
      <path d="M421.01,125.33q30.93.015,61.86,0v23.12q-19.83.015-39.66,0-.015,8.775-.01,17.55c11.67.01,23.34-.01,35,0q0,11.145,0,22.27-17.505.015-34.99,0-.015,9.57,0,19.12,20.55.015,41.12.01v23.05q-31.665.015-63.33.01Q421,177.885,421.01,125.33Z" />
      <path d="M496.54,125.34q9.27-.015,18.53,0,17.31,27.9,34.65,55.78.015-27.9.01-55.79,10.935,0,21.88.01-.015,52.56-.01,105.11H553.18q-17.325-27.885-34.64-55.77-.015,27.885-.01,55.77-11,0-21.98,0Q496.535,177.89,496.54,125.34Z" />
      <path d="M725.73,125.34q30.93-.015,61.88,0c-.01,7.7,0,15.41-.01,23.11q-19.7,0-39.39,0-.015,11.475,0,22.94h34.72q.015,11.535.01,23.06-17.37,0-34.73,0-.015,18-.01,36-11.235.015-22.47,0Q725.715,177.89,725.73,125.34Z" />
      <path d="M798.01,125.33c7.44.01,14.88-.01,22.32.01V230.45c-7.44.01-14.89,0-22.33.01Q798,177.885,798.01,125.33Z" />
      <path d="M828.67,125.34q35.325-.015,70.66,0V149c-8.02.01-16.04-.01-24.06,0q0,40.725,0,81.45-11.205.015-22.39,0-.015-40.725,0-81.45c-8.07-.01-16.14.01-24.21,0Q828.655,137.165,828.67,125.34Z" />
      <path d="M907.54,125.34q9.24-.015,18.47-.01,17.34,27.885,34.66,55.78-.015-27.885,0-55.77,10.965-.015,21.94,0-.015,52.545-.01,105.11-9.24,0-18.46.01-17.31-27.84-34.6-55.67-.015,27.825-.01,55.66-10.995.015-21.98,0Q907.535,177.89,907.54,125.34Z" />
      <path d="M998.21,125.33q30.96,0,61.91.01v23.11q-19.89.015-39.78.01c-.02,5.84-.01,11.69-.01,17.53,11.67.02,23.33,0,35,.01v22.27q-17.5.015-35,.01c0,6.37-.01,12.74.01,19.11q20.625,0,41.26.01,0,11.52,0,23.05-31.695,0-63.39,0Z" />
      <path d="M1665.74,188.74c11.14-1.09,23.61-.47,32.71,6.86,8.37,6.86,11.13,18.09,12.15,28.4-8.72.68-17.43,1.39-26.15,2.02-.73-3.72-1.38-7.64-3.68-10.77-3.28-4.62-10.1-5.79-15.07-3.46-5.46,2.84-6.19,11.99-.37,14.88,6.36,3.16,13.53,4.19,20.08,6.94,7.71,2.86,15.49,6.65,20.66,13.28,6.6,8.39,8.25,19.7,7.08,30.07-1.27,10.78-6.16,21.68-15.14,28.17-7.46,5.46-17.03,6.91-26.05,6.68-8.44-.23-17.29-1.55-24.37-6.46-10.69-8.16-14.48-22.33-15.44-35.16,8.8-.72,17.6-1.49,26.41-2.19.73,5.54,1.66,11.51,5.55,15.82,4.1,4.84,11.88,5.85,17.21,2.52,6.43-4.32,6.95-14.79.96-19.71-6.02-4.59-13.79-5.51-20.61-8.39-9.36-3.6-18.66-9.46-22.89-18.94-5.33-12.12-4.14-27.12,3.51-38C1647.64,193.74,1656.65,189.52,1665.74,188.74Z" />
      <path d="M1419.41,190.4q13.2-.015,26.4-.01,4.71,33.21,9.41,66.42,6.855-33.21,13.76-66.41,13.14,0,26.29.01c4.62,22.07,9.16,44.15,13.79,66.21,3.17-22.07,6.26-44.15,9.42-66.22q13.125,0,26.26.01-9.885,59.67-19.74,119.37h-27.22q-7.845-37.41-15.64-74.82-7.8,37.395-15.57,74.81-13.62.03-27.24,0Q1429.37,250.085,1419.41,190.4Z" />
      <path d="M1553.73,190.41q34.275-.03,68.54,0-.015,12.84-.01,25.7c-13.53.02-27.06-.01-40.59.01q-.015,10.335,0,20.68c11.55.01,23.1-.01,34.66.01q.015,12.09,0,24.18c-11.56.02-23.11,0-34.66.02q-.015,24.375-.01,48.76-13.965.015-27.92,0Q1553.725,250.1,1553.73,190.41Z" />
      <path d="M154.05,270.02a31.16,31.16,0,0,1,20.9-12.82c12.72-2.02,26.46.65,36.85,8.47q-3.45,11.13-6.93,22.25c-7.89-5.69-17.91-9.87-27.74-7.43-4.9,1.03-8.13,6.66-6.31,11.38,1.47,3.73,5.77,4.81,9.14,6.16,9.86,3.38,21.35,5.11,28.45,13.51,4.82,5.22,6.59,12.47,6.6,19.42.3,9.75-3,20.02-10.49,26.56-6.6,6.02-15.72,8.5-24.51,8.37-11.88-.09-24.17-3.6-33.23-11.53q3.69-11.04,7.36-22.09c7.46,6.29,17,10.55,26.88,10.4,3.38-.18,7.12-.56,9.74-2.94,3.62-3.43,2.7-10.4-1.97-12.46-9.2-4.72-19.97-5.69-28.77-11.31a26.37,26.37,0,0,1-11.22-17.47C147.18,288.81,148.45,278.27,154.05,270.02Z" />
      <path d="M410.27,258.19c11.16-3.29,23.93-1.73,33.49,5.08a43.833,43.833,0,0,1,11.97,13.1c-4.74,5.77-9.54,11.48-14.27,17.25-3.13-4.75-7.1-9.39-12.63-11.31a18.821,18.821,0,0,0-19.74,4.83c-6.05,6.31-8.07,15.4-8.12,23.9,0,8.73,2.04,18.14,8.39,24.54a18.746,18.746,0,0,0,21.1,3.87c4.76-2.19,8.15-6.37,10.99-10.62q7.14,8.61,14.28,17.21c-4.79,7.99-12.03,14.71-20.94,17.73-11.73,4.01-25.47,2.42-35.53-5-11.51-8.22-17.97-21.93-20.05-35.63-2.14-15.11-.54-31.24,7.04-44.7C391.44,269.1,399.93,261.31,410.27,258.19Z" />
      <path d="M999.41,257.66c10.84-2.61,22.87-.7,31.98,5.89,11.64,8.17,18.34,21.86,20.5,35.65,2.16,14.62.67,30.18-6.37,43.36-4.79,9.1-12.52,16.89-22.18,20.7-12.08,4.69-26.55,3.16-37.06-4.56-11.34-8.08-17.91-21.45-20.15-34.95-2.41-15.35-.7-31.82,7.16-45.45,5.6-9.88,14.94-17.96,26.12-20.64m5.95,23.99c-8.98,1.93-14.49,10.67-16.43,19.09-2.12,9.91-1.59,20.87,3.48,29.84,3.13,5.65,8.84,10.25,15.49,10.54,5.9.48,11.64-2.53,15.27-7.09,5.16-6.42,7.05-14.88,6.98-22.98.03-8.35-2.1-17.12-7.73-23.51A17.815,17.815,0,0,0,1005.36,281.65Z" />
      <path d="M225.13,258.67q18.435,0,36.87,0c8.29.01,16.76,2.76,22.87,8.5,6.86,6.35,10.34,15.63,11.12,24.8.86,9.77-.28,20.12-5.36,28.69a31.085,31.085,0,0,1-17.97,14.1c-8.14,2.48-16.75,1.29-25.12,1.58v27.44c-7.47.01-14.94,0-22.41.01V258.67m22.41,23.53v30.6c5.67-.24,11.44.56,17.04-.58,5.51-1.28,8.69-6.9,8.93-12.24.69-6.29-1.07-14.23-7.62-16.76C259.98,281.28,253.63,282.58,247.54,282.2Z" />
      <path d="M306.88,258.67q30.96-.015,61.91,0v23.12H329.12v17.54q17.5.015,35,.01,0,11.13,0,22.26-17.5.015-35,.01v19.12q20.58-.015,41.15,0,.015,11.52,0,23.05-31.695.015-63.39.01Q306.865,311.23,306.88,258.67Z" />
      <path d="M465.39,363.78q.015-52.56.01-105.11,11.235,0,22.47,0V363.79C480.38,363.78,472.88,363.79,465.39,363.78Z" />
      <path d="M494.06,363.78q17.445-52.545,34.82-105.11,11.025-.015,22.05,0,17.505,52.53,34.92,105.11-11.67.015-23.35,0c-2.05-6.82-4.13-13.62-6.19-20.44-11.04-.02-22.09.01-33.14-.01q-3.12,10.215-6.21,20.45-11.46.015-22.9,0m45.67-75.68q-5.01,16.65-10.03,33.29c6.69.01,13.38,0,20.07.01Q544.745,304.75,539.73,288.1Z" />
      <path d="M592,258.67q11.16,0,22.33,0,.015,40.725.01,81.46h37.6v23.66H592Z" />
      <path d="M660.67,258.67q11.16-.015,22.33,0V363.79q-11.175-.015-22.33,0Z" />
      <path d="M695.8,258.67q33.99-.015,67.99,0c-.03,5.77.03,11.54,0,17.31a4.464,4.464,0,0,1-.89,2.81q-19.395,30.66-38.77,61.34,20.67,0,41.32,0c.01,7.88,0,15.77.01,23.65q-35.34.015-70.66.01c.01-5.62-.02-11.24-.01-16.85a4.716,4.716,0,0,1,.92-3.31q19.365-30.645,38.72-61.29-19.32-.015-38.63-.01Q695.785,270.5,695.8,258.67Z" />
      <path d="M800.43,258.67c7.35-.01,14.71,0,22.07-.01q17.46,52.56,34.9,105.12c-7.77.01-15.54,0-23.3.01-2.11-6.81-4.14-13.64-6.23-20.46-11.05.01-22.1-.01-33.15.01-2.05,6.82-4.13,13.62-6.18,20.44-7.64.02-15.27,0-22.9.01q17.385-52.56,34.79-105.12m.84,62.73c6.69-.01,13.38,0,20.07-.01q-5.01-16.635-10.03-33.27C807.94,299.2,804.62,310.3,801.27,321.4Z" />
      <path d="M852.21,258.67q35.34-.015,70.66,0v23.66c-8.03.01-16.06-.01-24.08.01v81.45q-11.2,0-22.4-.01V282.34c-8.06-.02-16.12,0-24.18-.01Z" />
      <path d="M931.06,258.67q11.19,0,22.39,0,.015,52.56,0,105.12-11.19,0-22.39,0Z" />
      <path d="M1064.39,363.78q.015-52.56.01-105.11h18.43q17.325,27.855,34.63,55.74.015-27.87.01-55.74,10.98-.015,21.98,0,.015,52.56,0,105.12h-18.49q-17.325-27.855-34.63-55.72v55.72Q1075.35,363.79,1064.39,363.78Z" />
    </g>
  </g>
</svg>
